<?xml version="1.0" encoding="UTF-8" standalone="no"?>
<!-- Created with Inkscape (http://www.inkscape.org/) -->

<svg
   version="1.1"
   id="svg6867"
   width="200"
   height="200.13058"
   viewBox="0 0 200 200.13058"
   sodipodi:docname="clipper-blade.svg"
   inkscape:version="1.2.1 (9c6d41e410, 2022-07-14)"
   xmlns:inkscape="http://www.inkscape.org/namespaces/inkscape"
   xmlns:sodipodi="http://sodipodi.sourceforge.net/DTD/sodipodi-0.dtd"
   xmlns="http://www.w3.org/2000/svg"
   xmlns:svg="http://www.w3.org/2000/svg">
  <defs
     id="defs6871" />
  <sodipodi:namedview
     id="namedview6869"
     pagecolor="#505050"
     bordercolor="#eeeeee"
     borderopacity="1"
     inkscape:showpageshadow="0"
     inkscape:pageopacity="0"
     inkscape:pagecheckerboard="0"
     inkscape:deskcolor="#505050"
     showgrid="false"
     inkscape:zoom="1.5158537"
     inkscape:cx="192.63073"
     inkscape:cy="200.87691"
     inkscape:window-width="1920"
     inkscape:window-height="1043"
     inkscape:window-x="0"
     inkscape:window-y="0"
     inkscape:window-maximized="1"
     inkscape:current-layer="g6873" />
  <g
     inkscape:groupmode="layer"
     inkscape:label="Image"
     id="g6873"
     transform="translate(-210.55941,-39.743903)">
    <path
       style="fill:#425fee;fill-opacity:1;stroke-width:0.500392"
       d="m 222.03871,239.58901 c -4.20615,-1.11138 -8.17732,-4.41316 -10.30397,-8.56711 -0.91124,-1.77991 -1.1574,-3.09061 -1.17475,-6.2549 -0.0299,-5.44841 1.08194,-7.72124 6.47095,-13.22836 l 4.24815,-4.34127 -2.02497,-1.97361 c -1.11374,-1.0855 -2.74128,-3.42652 -3.61675,-5.20228 -1.36567,-2.77005 -1.59177,-3.76852 -1.59177,-7.02939 0,-6.42765 1.0219,-7.94609 16.33283,-24.26902 44.29954,-47.2276 99.47014,-105.400296 110.27936,-116.280187 l 12.61649,-12.69898 4.43714,0.328817 c 10.30515,0.763671 10.82997,0.861071 12.2406,2.271707 1.17232,1.172312 1.37483,1.875619 1.69124,5.873405 l 0.35946,4.541619 2.27334,0.311596 c 1.25034,0.171378 3.25166,0.311597 4.44737,0.311597 1.66843,0 2.53475,0.322296 3.72503,1.385815 1.46669,1.310484 1.56912,1.643686 1.88437,6.129805 l 0.33337,4.743991 4.74399,0.333369 c 4.48612,0.315249 4.81932,0.417678 6.1298,1.884366 1.06352,1.190283 1.38582,2.056606 1.38582,3.725029 0,1.195712 0.14022,3.197031 0.31159,4.447371 l 0.3116,2.273342 4.54162,0.359457 c 3.99779,0.316413 4.70109,0.518927 5.87341,1.691241 1.40996,1.40996 1.50894,1.942523 2.26913,12.209757 l 0.32625,4.406279 -7.94268,8.035894 c -9.00951,9.11523 -91.65479,87.5239 -129.03762,122.4228 -7.65488,7.14625 -10.75847,8.83169 -16.26275,8.83169 -3.26087,0 -4.25934,-0.22609 -7.02938,-1.59176 -1.77577,-0.87548 -4.11679,-2.50302 -5.20228,-3.61675 l -1.97362,-2.02498 -4.34126,4.24815 c -2.67491,2.61754 -5.26685,4.65759 -6.75262,5.31481 -2.59181,1.14649 -7.54078,1.64081 -9.97849,0.99669 z m 6.65504,-9.78062 c 0.74318,-0.39221 2.81081,-2.19608 4.59474,-4.0086 l 3.24351,-3.29548 -4.36392,-4.36393 -4.36393,-4.36393 -3.29549,3.24351 c -3.89606,3.83462 -4.72172,5.23745 -4.72172,8.02243 0,1.69427 0.31314,2.3896 1.70133,3.77779 1.3882,1.38819 2.08352,1.70133 3.7778,1.70133 1.14205,0 2.6845,-0.3209 3.42768,-0.71312 z m 31.35169,-3.28124 c 0.71118,-0.27039 4.03394,-3.0288 7.3839,-6.12981 10.24025,-9.47921 93.46822,-87.99357 93.46822,-88.17465 0,-0.0431 -2.98358,-0.0976 -6.63019,-0.12117 -5.03507,-0.0326 -7.56928,-0.29405 -10.5335,-1.08686 -12.0747,-3.22949 -21.21058,-12.36538 -24.44008,-24.44008 -0.79281,-2.96422 -1.05429,-5.49843 -1.08685,-10.533494 -0.0236,-3.646609 -0.0824,-6.630198 -0.13081,-6.630198 -0.1048,0 -68.75335,72.699592 -83.05541,87.956632 -5.48882,5.85531 -10.37372,11.36862 -10.85535,12.2518 -0.48163,0.88318 -0.87568,2.61406 -0.87568,3.8464 v 2.24062 l 15.13686,15.19961 c 8.32528,8.35979 15.58722,15.39082 16.13765,15.6245 1.38191,0.58669 3.9335,0.58515 5.48124,-0.004 z m 49.09283,-67.88927 c -2.07659,-0.63729 -3.53229,-1.80195 -9.12685,-7.30209 -7.04141,-6.92257 -8.50077,-9.07153 -8.99513,-13.24567 -0.63845,-5.39068 2.66613,-11.26809 7.71317,-13.71837 3.28902,-1.59679 8.46287,-1.58784 11.62848,0.0201 3.10468,1.577 13.74756,12.16175 15.39253,15.30846 1.04038,1.99017 1.31094,3.21847 1.32268,6.00471 0.0185,4.37576 -1.33078,7.40293 -4.57059,10.25472 -3.7234,3.27747 -8.37437,4.2095 -13.36429,2.67813 z m 7.49732,-9.90776 c 0.86706,-0.86707 1.22824,-1.77967 1.22824,-3.1035 0,-1.7225 -0.46052,-2.33578 -5.65337,-7.52863 -5.19285,-5.19284 -5.80613,-5.65337 -7.52863,-5.65337 -2.55884,0 -4.33173,1.77289 -4.33173,4.33174 0,1.7225 0.46052,2.33578 5.65336,7.52863 5.19285,5.19284 5.80613,5.65336 7.52864,5.65336 1.32382,0 2.23643,-0.36117 3.10349,-1.22823 z m 49.2659,-27.75155 c 5.33679,-1.79637 9.96177,-4.17015 13.94507,-7.15734 l 2.68626,-2.01449 -3.04662,-3.04662 -3.04662,-3.04662 -4.45402,4.35851 c -4.64994,4.5502 -5.80082,5.07742 -8.24364,3.77637 -1.68951,-0.89984 -2.31071,-1.99679 -2.32805,-4.11094 -0.0145,-1.76896 0.36016,-2.32522 4.22902,-6.27888 l 4.24494,-4.337975 -2.98344,-2.952304 -2.98344,-2.95231 -4.1684,4.068675 c -2.29262,2.237774 -4.77866,4.221844 -5.52454,4.409044 -3.13439,0.78668 -6.40622,-2.453796 -5.62406,-5.570154 0.19315,-0.769579 2.18208,-3.275018 4.41986,-5.567635 l 4.06867,-4.168403 -2.95231,-2.983434 -2.9523,-2.983439 -4.33798,4.244938 c -3.95366,3.868863 -4.50992,4.243522 -6.27888,4.22902 -2.11415,-0.01731 -3.21109,-0.638545 -4.11093,-2.328055 -1.30105,-2.442815 -0.77384,-3.593697 3.77637,-8.243637 l 4.3585,-4.454022 -3.04662,-3.046618 -3.04662,-3.046617 -2.02132,2.686254 c -5.4339,7.221426 -8.57073,15.681544 -8.97399,24.203119 -0.43012,9.089313 1.72105,15.192563 7.33277,20.804283 5.61201,5.61201 11.04832,7.56336 20.30388,7.28802 5.13908,-0.15289 6.69,-0.40931 10.75844,-1.77874 z m 35.0198,-29.558292 c -0.0105,-3.088361 -0.47564,-3.607748 -3.49048,-3.89744 l -2.60403,-0.250211 -5.70578,5.689595 c -3.13818,3.129278 -5.70578,5.91192 -5.70578,6.183643 0,0.271723 1.28953,1.797175 2.86564,3.389905 l 2.86564,2.89585 5.89122,-5.875874 c 5.79224,-5.777154 5.8911,-5.913846 5.88357,-8.135468 z m -18.35767,-4.910479 5.88807,-5.903438 -0.33537,-2.853427 -0.33536,-2.853422 h -2.80085 -2.80084 l -5.88379,5.868466 -5.8838,5.868465 2.85826,2.8884 c 1.57204,1.58862 2.98142,2.888399 3.13194,2.888399 0.15053,0 2.92331,-2.656548 6.16174,-5.903443 z m -7.15468,-21.166122 v -2.816183 l -2.8579,-0.33589 -2.85791,-0.33589 -6.01491,6.014917 -6.01492,6.014916 2.9816,3.013032 2.98159,3.013037 5.89123,-5.875876 5.89122,-5.87588 z m -18.06271,-4.156226 5.6896,-5.705784 -0.25022,-2.604025 c -0.28941,-3.011932 -0.80998,-3.479985 -3.8821,-3.490474 -2.19984,-0.0075 -2.36066,0.10845 -8.12804,5.860802 l -5.8838,5.868466 2.85826,2.888399 c 1.57204,1.58862 3.09416,2.8884 3.38248,2.8884 0.28833,0 3.08454,-2.567603 6.21382,-5.705784 z"
       id="path8446" />
  </g>
</svg>
