<?xml version="1.0" encoding="UTF-8" standalone="no"?>
<!-- Created with Inkscape (http://www.inkscape.org/) -->

<svg
   version="1.1"
   id="svg3997"
   width="211.21387"
   height="200"
   viewBox="0 0 211.21387 200"
   xmlns="http://www.w3.org/2000/svg"
   xmlns:svg="http://www.w3.org/2000/svg">
  <defs
     id="defs4001" />
  <g
     id="g4003"
     transform="translate(-0.5,-14)">
    <path
       style="fill:#3b869e;fill-opacity:1;stroke-width:0.413334"
       d="M 89.160226,213.59237 C 62.664256,212.28027 37.271667,207.4045 21.571827,200.61432 10.906545,196.0016 4.8631574,191.26218 1.8261156,185.12913 L 0.5,182.45114 V 136.149 89.84686 L 1.7856175,87.160186 C 4.8362166,80.78507 11.881353,75.486979 23.516241,70.818296 l 5.503832,-2.208495 0.206667,-22.126986 0.206667,-22.126986 0.941028,-0.941237 c 0.939289,-0.939498 0.968276,-0.941457 15.687398,-1.059912 10.597257,-0.08528 15.076256,0.01797 15.918813,0.366966 2.6348,1.09137 3.109011,3.848045 1.196612,6.956097 -0.650601,1.057358 -2.124581,3.425022 -3.27551,5.261477 l -2.092601,3.339007 3.275506,5.299845 c 3.644812,5.897381 3.965807,7.186298 2.27851,9.148979 l -0.997,1.159717 -12.539701,0.206667 -12.539702,0.206668 -0.114682,5.890015 c -0.06307,3.239508 0.02992,5.890015 0.206655,5.890015 0.176735,0 3.111349,-0.645439 6.521365,-1.434304 10.363942,-2.397575 25.174854,-4.59634 36.166771,-5.369164 1.932339,-0.135859 4.582845,-0.352925 5.890015,-0.482369 l 2.376673,-0.235349 V 37.68481 16.810674 L 89.738894,15.405337 91.144231,14 h 14.962709 14.9627 l 1.40534,1.405337 c 2.10414,2.104142 1.91836,2.985513 -1.92147,9.115729 -1.82975,2.921151 -3.24728,5.51845 -3.15007,5.771777 0.0972,0.253327 1.51037,2.572305 3.14035,5.153284 1.62999,2.58098 3.06561,5.202712 3.19028,5.826072 0.26525,1.326248 -0.73746,3.508109 -1.89753,4.128961 -0.49397,0.264367 -5.42461,0.425588 -13.01576,0.425588 H 96.600245 v 6.200016 6.200015 l 8.990025,0.0025 c 13.07168,0.0037 24.45066,0.667928 39.6801,2.315603 l 2.58334,0.279492 V 42.877397 c 0,-19.570921 -0.0497,-19.14972 2.37952,-20.155946 0.84273,-0.349069 5.33265,-0.452266 15.96602,-0.366965 l 14.79358,0.118869 0.99715,1.159719 c 1.78207,2.072601 1.4223,3.578084 -2.25982,9.456521 l -3.25698,5.199691 3.25698,5.21571 c 3.77318,6.042369 4.10738,7.552358 2.09768,9.477773 l -1.15928,1.110666 H 168.39448 156.1204 v 4.03762 4.03762 l 4.23667,0.765206 c 14.97136,2.704042 29.86517,7.651365 38.73822,12.86779 4.86771,2.861704 9.50078,7.461281 11.26209,11.180666 l 1.35649,2.864523 v 46.30214 46.30214 l -1.32612,2.67799 c -4.61413,9.31786 -17.55365,16.4803 -39.55309,21.8939 -22.76856,5.60286 -52.65248,8.00652 -81.674434,6.56934 z m 38.130094,-8.48457 1.55001,-0.23776 -0.006,-14.93815 c -0.005,-11.90273 -0.13374,-15.47964 -0.63421,-17.60296 -2.07216,-8.79144 -8.8776,-15.31486 -17.95973,-17.21548 -11.514399,-2.40961 -23.446933,5.42311 -26.226413,17.21548 -0.500659,2.12411 -0.629343,5.70499 -0.634212,17.64818 -0.0057,13.97612 0.04252,14.98703 0.717226,15.03775 7.374233,0.55438 12.807976,0.66139 25.936729,0.51083 8.63869,-0.0991 16.40421,-0.28712 17.25671,-0.41789 z M 75.106857,194.00713 v -10.1267 h -1.21138 c -0.666258,0 -4.099012,-0.37509 -7.628342,-0.83354 -23.70405,-3.07907 -43.417084,-8.84658 -54.150577,-15.84303 l -3.6048401,-2.34975 0.1274847,8.23899 0.1274851,8.23899 1.2560223,1.78567 c 5.04061,7.16614 22.317811,14.24471 44.810971,18.35932 6.518031,1.19232 16.26539,2.55493 18.723172,2.61737 l 1.550004,0.0394 z m 70.354373,9.31468 c 28.11548,-3.61285 50.72326,-11.66449 56.72993,-20.20405 l 1.25602,-1.78567 0.12772,-8.26448 0.12772,-8.26448 -2.40106,1.60705 c -7.3406,4.91313 -15.89126,8.37254 -28.96986,11.72055 -9.36816,2.39817 -29.19471,5.7497 -34.01331,5.7497 h -1.21138 v 10.1267 10.12669 h 1.01753 c 0.55964,0 3.86115,-0.36541 7.33669,-0.81201 z M 75.318389,174.06374 c 1.405453,-8.74915 4.944587,-15.32729 10.923138,-20.30269 3.56658,-2.96814 7.131052,-4.82887 11.722395,-6.11936 l 4.009668,-1.127 v -9.2172 -9.2172 h -3.529316 c -7.290627,0 -31.456987,-1.90903 -34.807446,-2.74963 l -0.930003,-0.23333 v 24.63821 c 0,19.42283 0.109368,24.64303 0.516668,24.66103 0.284168,0.0126 2.376673,0.27009 4.650012,0.57228 2.273339,0.30219 4.822418,0.57092 5.66462,0.59717 1.461042,0.0455 1.542692,-0.0234 1.780264,-1.50228 z m 68.815311,0.93 c 2.38701,-0.32659 4.57251,-0.5997 4.85668,-0.6069 0.37452,-0.01 0.51667,-1.04791 0.51667,-3.77444 0,-3.75296 0.003,-3.76459 1.45764,-5.21898 1.29315,-1.29316 1.6313,-1.43004 2.99667,-1.21303 0.98545,0.15663 1.94789,0.69815 2.6757,1.5055 1.01115,1.12164 1.13667,1.57966 1.13667,4.1477 0,2.47481 0.10324,2.88643 0.72334,2.88414 1.46923,-0.005 13.60108,-2.90771 18.34849,-4.38947 l 4.90157,-1.52989 V 142.4351 c 0,-23.034 -0.0395,-24.34804 -0.72334,-24.08388 -2.67126,1.03183 -21.40848,5.59573 -22.97342,5.59573 -0.11076,0 -0.26482,1.9492 -0.34235,4.33156 -0.13294,4.08533 -0.20557,4.39612 -1.27762,5.46728 -1.69158,1.69018 -4.10981,1.60371 -5.72565,-0.20473 -1.12446,-1.25849 -1.1977,-1.55767 -1.1977,-4.8921 0,-3.47421 -0.0203,-3.54673 -0.93001,-3.32687 -3.33148,0.80512 -20.04517,2.22739 -30.69654,2.61217 l -7.64022,0.27599 v 9.17916 9.17916 l 2.99667,0.7238 c 9.29996,2.24625 16.87967,8.48316 20.99361,17.27443 1.12946,2.41362 2.11205,5.90574 2.67216,9.49694 0.28701,1.84016 0.43744,1.85951 7.23098,0.93 z m 7.48551,-21.86353 c -2.46722,-1.36748 -2.76275,-4.22862 -0.65452,-6.33684 1.29315,-1.29316 1.6313,-1.43004 2.99667,-1.21303 1.8165,0.28872 3.81237,2.26437 3.81237,3.77374 0,3.27778 -3.34775,5.33181 -6.15452,3.77613 z m -97.179073,-4.78866 v -24.37886 l -0.930002,-0.19356 c -0.511501,-0.10645 -3.348008,-0.69045 -6.303349,-1.29776 -4.850905,-0.99685 -14.182698,-3.39453 -16.016708,-4.11528 -0.683924,-0.26878 -0.723335,1.04307 -0.723335,24.07733 v 24.3616 l 1.550004,0.49517 c 7.009262,2.23918 19.350249,5.3417 21.493388,5.40343 l 0.930002,0.0268 z m -32.256635,-9.20456 -0.01655,-24.07673 -3.600122,-1.65334 c -1.980067,-0.90934 -5.041626,-2.61078 -6.803464,-3.78099 l -3.2033415,-2.12766 v 22.08432 c 0,17.59435 0.1133181,22.35472 0.5573657,23.41437 0.7793954,1.8599 2.5172328,3.81922 5.0414718,5.68398 2.163152,1.59802 7.150769,4.51918 7.731196,4.52804 0.170501,0.002 0.302552,-10.82979 0.293448,-24.07199 z m 172.274208,21.91592 c 3.87793,-2.20893 7.24533,-5.23039 8.33277,-7.47674 0.84267,-1.74073 0.86337,-2.31442 0.86337,-23.93069 v -22.14721 l -3.20334,2.12766 c -1.76184,1.17021 -4.8234,2.87165 -6.80346,3.78099 l -3.60013,1.65334 -0.0166,24.12095 c -0.0157,22.80391 0.0229,24.10615 0.70678,23.84996 0.39783,-0.14905 2.07209,-1.03926 3.72056,-1.97826 z m -60.86404,-42.24745 c 18.89893,-1.86742 33.50713,-4.57256 45.05345,-8.34295 6.39365,-2.08781 6.16979,-1.81479 3.529,-4.30396 -3.90946,-3.68501 -13.31591,-7.80669 -23.98905,-10.511422 -15.52999,-3.935531 -29.4807,-5.375451 -52.08013,-5.375451 -16.003539,0 -21.266137,0.271548 -32.240086,1.663596 -18.661428,2.367203 -35.740821,7.707281 -42.890892,13.410357 -3.771163,3.00797 -3.770156,3.0102 2.241344,4.96596 14.851331,4.83165 30.491181,7.4098 56.149587,9.25595 5.668112,0.40783 38.030467,-0.14981 44.226777,-0.76208 z M 21.671497,103.11206 c 4.348478,-6.169232 15.785873,-11.865365 31.64266,-15.758904 30.367235,-7.456487 75.218323,-7.456487 105.585553,0 15.61989,3.835371 26.75969,9.3319 31.455,15.520334 0.77342,1.01937 1.54589,1.907 1.7166,1.9725 0.57285,0.21979 5.47284,-2.9492 7.68188,-4.968133 2.70465,-2.471897 4.08456,-5.131435 3.79245,-7.309285 -1.14494,-8.536174 -21.38803,-17.737935 -49.08801,-22.313609 -16.68931,-2.75685 -27.38502,-3.53992 -48.35069,-3.53992 -16.781839,0 -22.631752,0.278059 -35.133427,1.669979 -13.667179,1.521686 -30.361319,4.997481 -39.788255,8.284097 -5.993158,2.089459 -14.540674,6.37727 -17.470385,8.763917 -6.2958124,5.128789 -6.6519992,9.511531 -1.179485,14.5131 1.897907,1.734574 6.832082,4.959214 7.621762,4.981054 0.126738,0.003 0.808195,-0.8133 1.514347,-1.81513 z M 52.7868,46.044549 c 0,-0.107543 -0.873434,-1.610848 -1.940961,-3.340677 -2.360507,-3.824989 -2.423995,-5.001978 -0.43732,-8.10765 0.784389,-1.2262 1.646935,-2.641968 1.916764,-3.146151 l 0.490603,-0.916696 h -7.867898 -7.867895 v 7.577797 c 0,4.167789 0.124001,7.701798 0.275557,7.853354 0.308567,0.308567 15.43115,0.386991 15.43115,0.08002 z m 118.62697,-0.05825 c 0,-0.139579 -0.837,-1.596693 -1.86001,-3.238034 -1.27162,-2.04023 -1.86,-3.436927 -1.86,-4.415241 0,-0.973487 0.59466,-2.395493 1.86,-4.447823 1.02301,-1.65926 1.86001,-3.092211 1.86001,-3.184334 0,-0.09212 -3.44101,-0.167497 -7.64669,-0.167497 h -7.64668 v 7.853354 7.853353 h 7.64668 c 4.20568,0 7.64669,-0.1142 7.64669,-0.253778 z m -59.52015,-8.41511 c 0,-0.22121 -0.86189,-1.798814 -1.91532,-3.505787 -2.33331,-3.780915 -2.29367,-4.595885 0.43022,-8.845433 l 1.89301,-2.953286 h -7.85064 -7.850645 v 7.577797 c 0,4.167788 0.124,7.701797 0.275557,7.853353 0.449295,0.449296 15.017818,0.326441 15.017818,-0.126644 z"
       id="path4850" />
  </g>
</svg>
