<?xml version="1.0" encoding="UTF-8" standalone="no"?>
<!-- Created with Inkscape (http://www.inkscape.org/) -->

<svg
   version="1.1"
   id="svg25712"
   width="161.80447"
   height="200"
   viewBox="0 0 161.80447 200"
   sodipodi:docname="hairdressing-shear.svg"
   inkscape:version="1.2.1 (9c6d41e410, 2022-07-14)"
   xmlns:inkscape="http://www.inkscape.org/namespaces/inkscape"
   xmlns:sodipodi="http://sodipodi.sourceforge.net/DTD/sodipodi-0.dtd"
   xmlns="http://www.w3.org/2000/svg"
   xmlns:svg="http://www.w3.org/2000/svg">
  <defs
     id="defs25716" />
  <sodipodi:namedview
     id="namedview25714"
     pagecolor="#505050"
     bordercolor="#eeeeee"
     borderopacity="1"
     inkscape:showpageshadow="0"
     inkscape:pageopacity="0"
     inkscape:pagecheckerboard="0"
     inkscape:deskcolor="#505050"
     showgrid="false"
     inkscape:zoom="0.94282511"
     inkscape:cx="346.82996"
     inkscape:cy="421.60523"
     inkscape:window-width="1920"
     inkscape:window-height="1043"
     inkscape:window-x="0"
     inkscape:window-y="0"
     inkscape:window-maximized="1"
     inkscape:current-layer="g25718" />
  <g
     inkscape:groupmode="layer"
     inkscape:label="Image"
     id="g25718"
     transform="translate(-1.7693244,-2.7257651)">
    <path
       style="fill:#425fee;fill-opacity:1;stroke:none;stroke-width:0.300375"
       d="m 162.3723,3.0128273 c -2.3177,-0.9284084 -3.46033,0.565479 -5.10639,2.0516466 -2.53908,2.292392 -5.08897,4.539115 -7.5094,6.9596351 -11.0932,11.093129 -22.46573,22.023273 -33.9425,32.714258 -13.08438,12.188358 -26.861425,24.359597 -36.371337,39.676376 -7.804069,12.56953 -10.717117,27.378977 -20.172957,39.048887 -4.237704,5.23045 -9.32277,9.09929 -15.245586,12.2259 -7.971381,4.20827 -16.326251,7.19041 -21.171407,15.4087 -2.463715,4.17883 -3.111176,9.09479 -3.759807,13.81729 -1.18955,8.66105 -1.200783,16.84089 -0.593333,25.53197 0.236336,3.38134 1.619297,6.76417 2.792146,9.91241 0.408932,1.09757 1.274345,3.09447 2.81209,2.09302 1.46899,-0.957 -0.340656,-4.96672 -0.7185,-6.29828 -1.298074,-4.57473 -2.570587,-11.84624 -0.01853,-16.22031 3.090269,-5.29683 8.68285,-3.9908 13.748694,-4.94659 5.194404,-0.97983 9.788955,-4.23921 13.003581,-8.32102 3.123009,-3.96527 5.352399,-8.92778 4.991948,-14.06661 -0.388385,-5.54495 -2.890517,-10.72644 -0.35294,-16.22031 1.561054,-3.37923 4.289068,-5.83631 7.589002,-7.47336 1.514195,-0.75154 4.68046,-1.27629 5.698735,-2.64902 0.720902,-0.97171 0.541276,-3.38343 0.789688,-4.59605 0.533767,-2.60666 1.590491,-5.18089 2.870093,-7.5094 4.663338,-8.48532 11.150861,-14.797123 17.848345,-21.571804 3.455828,-3.495479 7.201521,-6.739238 10.645025,-10.268056 1.04982,-1.075949 3.50479,-2.747842 3.01037,-4.505643 -0.93357,-3.320358 -6.185044,-5.732077 -5.623639,-9.612035 0.327711,-2.265436 2.603659,-3.916603 4.110649,-5.40797 3.87725,-3.837303 7.85513,-7.553556 11.71466,-11.413088 11.51341,-11.513415 23.32841,-22.727534 34.84362,-34.242872 3.15516,-3.15521 6.34815,-6.245569 9.61204,-9.284774 1.60881,-1.4980055 3.55705,-2.7988893 4.50564,-4.8329007 M 104.39972,77.205714 c 1.85692,-0.868386 2.86679,-2.684761 4.16621,-4.205264 3.02419,-3.53843 5.80568,-7.278112 8.83136,-10.813537 11.04303,-12.903256 21.66312,-26.199102 32.41028,-39.349265 l 9.61203,-11.714667 c 1.64306,-2.0106872 3.85984,-3.8938049 4.1542,-6.6082733 -2.13147,0.9940345 -3.7595,3.1586645 -5.40677,4.806017 -2.85597,2.8560053 -5.79335,5.6088913 -8.7109,8.3986943 -10.9379,10.459035 -21.36665,21.509149 -32.44061,31.824665 -4.24822,3.957453 -8.50966,7.935934 -12.6158,12.042075 -1.61332,1.61332 -4.32422,3.565163 -5.185091,5.734179 -1.38804,3.497879 3.554351,7.277812 5.185091,9.885376 m -9.011281,2.403009 -6.007526,0.300375 c 0.704683,-3.489767 5.142446,-3.927116 6.007526,-0.300375 m 0,0.901128 c -0.523559,3.391244 -6.05258,3.678107 -5.707144,0 h 5.707144 M 73.76136,91.924146 c -10.379794,8.417434 -21.505424,13.978294 -35.144,13.816094 -9.439197,-0.11234 -20.604656,-5.34099 -29.4368543,-0.19434 -7.9284614,4.61978 -9.82041765,15.03892 -4.0923842,22.12299 2.8899183,3.57418 7.5203355,5.52723 11.3014095,8.00052 2.518143,1.64726 5.624992,5.5918 8.710907,5.78404 5.287009,0.32952 4.815388,-6.74194 6.5509,-10.18005 0.944984,-1.87164 2.529466,-3.26358 3.519207,-5.10639 1.033594,-1.92481 1.163057,-4.05958 2.093321,-6.00752 1.751494,-3.66789 5.105792,-6.52086 8.56252,-8.53668 4.620985,-2.69438 9.60032,-4.55881 14.718429,-6.05439 2.430343,-0.71009 6.268547,-0.83714 8.342944,-2.25703 0.970814,-0.66412 1.250164,-1.94042 1.647562,-2.97672 0.961805,-2.50784 3.075852,-5.762416 3.226039,-8.410524 M 17.290659,107.32923 c 4.427454,-0.54398 9.971975,1.08465 12.775025,4.72131 5.638329,7.31506 0.262228,17.32058 -8.56976,18.26947 -4.817071,0.51755 -9.889732,-0.58693 -13.1178135,-4.45458 -6.3497367,-7.60762 0.152141,-17.45965 8.9125485,-18.5362 m 21.026327,36.04933 c 8.963219,-1.2805 14.675773,6.13368 12.502252,14.62832 -1.78874,6.99124 -8.061493,12.55391 -15.20564,13.43101 -8.777468,1.07745 -13.10015,-6.81824 -11.610586,-14.50516 1.283657,-6.6242 7.672958,-12.60528 14.313974,-13.55417 z"
       id="path26085" />
  </g>
</svg>
