<?xml version="1.0" encoding="UTF-8" standalone="no"?>
<!-- Created with Inkscape (http://www.inkscape.org/) -->

<svg
   version="1.1"
   id="svg2"
   width="274.04266"
   height="200"
   viewBox="0 0 274.04266 200"
   xmlns="http://www.w3.org/2000/svg"
   xmlns:svg="http://www.w3.org/2000/svg">
  <defs
     id="defs6" />
  <g
     id="g8"
     transform="translate(0.35745802,-73.823889)">
    <path
       style="fill:#3b869a;fill-opacity:1;stroke:none;stroke-width:0.535291"
       d="m 22.839384,147.04622 -0.02933,82.96991 -4.620996,9.09993 -1.773147,12.31166 c -8.7639244,0.0251 -8.564636,6.93361 -8.564636,13.91753 -3.2384653,0.002 -12.0635301,2.73319 -6.3012219,7.09687 3.1861355,2.41256 11.0255279,0.93248 14.8658579,0.93248 h 39.611436 153.092863 48.17608 c 3.81822,0 13.83456,1.80392 15.95484,-2.19951 1.46241,-2.76156 -1.02722,-5.29669 -3.64532,-5.71528 -5.96367,-0.95389 -12.69279,-0.11456 -18.733,-0.11456 V 147.04622 c 5.2271,0 17.63083,2.29051 20.95177,-2.73425 3.04366,-4.60511 -3.66941,-11.7646 -5.99042,-15.46559 -6.50377,-10.36964 -13.08195,-20.69163 -19.6082,-31.046812 -2.74176,-4.349763 -5.46157,-10.84454 -9.85415,-13.733713 -5.9551,-3.916447 -17.20475,-1.789688 -24.03986,-1.789688 h -58.88188 c -2.18023,0 -4.98033,0.460938 -6.86776,-0.858283 -3.36697,-2.353241 -4.9252,-7.593995 -9.72621,-7.593995 -4.80102,0 -6.35925,5.240754 -9.72622,7.593995 -1.88743,1.319221 -4.68753,0.858283 -6.86776,0.858283 H 61.380245 c -6.835117,0 -18.084871,-2.126759 -24.039702,1.789688 -4.392909,2.889173 -7.112555,9.38395 -9.854148,13.733713 -6.526414,10.354642 -13.104749,20.677172 -19.6082518,31.046812 -2.3212303,3.70099 -9.034315,10.86048 -5.9906416,15.46559 3.3210445,5.02476 15.7247784,2.73425 20.9518824,2.73425 m 114.552006,-64.234763 38.76246,47.105493 14.23122,17.66457 c -8.83389,0 -11.63667,-5.29081 -16.99545,-11.77638 -7.66856,-9.28139 -15.31143,-18.58579 -23.01907,-27.83506 -2.74656,-3.29579 -8.83977,-13.839923 -13.51445,-13.839923 -4.67469,0 -10.76789,10.544133 -13.51446,13.839923 -7.70764,9.24927 -15.35051,18.55367 -23.01907,27.83506 -5.358781,6.48557 -8.16156,11.77638 -16.995447,11.77638 L 95.744241,132.05811 136.3208,82.811457 h 1.07059 m -17.66457,7.494056 c -2.75139,6.171893 -7.55294,5.352899 -13.38224,5.352899 -8.374072,0 -19.778956,-2.040528 -27.827035,0.232314 -3.170523,0.895007 -4.081051,4.907004 -1.020264,6.630634 2.399168,1.35107 6.380118,0.63111 9.041581,0.63111 h 8.564637 13.917531 c -3.86051,9.11812 -12.607678,6.95876 -20.876299,6.95876 H 29.79815 c 4.02918,-13.69271 21.744163,-3.35627 31.558543,-7.35595 3.157671,-1.28683 3.157671,-5.412848 0,-6.699686 C 57.9849,94.681507 52.670547,95.658412 49.06858,95.658412 H 38.898076 c 2.533793,-7.99889 13.001864,-5.352899 19.805721,-5.352899 h 61.023023 m 115.0873,5.352899 h -59.95245 c -7.20286,0 -17.37711,2.497127 -20.8763,-5.352899 h 61.02302 c 6.80407,0 17.27166,-2.645991 19.80573,5.352899 m 9.09992,14.452818 h -58.34658 c -8.26862,0 -17.01579,2.15936 -20.8763,-6.95876 h 58.88187 c 8.01864,0 17.54144,-2.55548 20.34101,6.95876 m -58.88187,45.49963 c 6.31535,0 19.22975,1.62354 15.52341,-8.56464 h 8.02934 c 2.81187,0 6.58995,0.62201 9.06834,-0.99457 2.69893,-1.76003 2.46555,-5.28277 -0.52726,-6.57549 -9.52601,-4.1137 -23.32578,5.54667 -28.3468,-7.41805 h 52.99368 c 8.86975,0 16.54688,-2.19469 20.8763,6.95877 -8.24346,0 -19.96524,-2.1615 -27.82703,0.27514 -3.30274,1.02347 -4.00719,4.82885 -1.04703,6.75963 2.48107,1.61819 6.24897,0.99457 9.06834,0.99457 v 118.29903 h -57.81129 v -39.61144 c 0,-3.375 1.45813,-12.02367 -3.74703,-12.32932 -5.39197,-0.3169 -4.28231,8.56356 -4.28231,11.79403 v 40.14673 h -14.98812 v -46.5702 c 0,-5.68531 1.69634,-14.71887 -1.21992,-19.79769 -2.32851,-4.05589 -6.48664,-3.75506 -10.55645,-3.75506 h -26.2292 c -3.97453,0 -8.22205,-0.50264 -10.77056,3.23476 -3.24172,4.75444 -1.5411,13.7457 -1.5411,19.24741 v 47.64078 H 96.709364 v -78.68759 -23.55274 c 0,-3.25082 -0.751547,-7.60754 0.315287,-10.7058 2.264813,-6.57978 10.461699,-13.41008 14.894439,-18.73514 l 18.64575,-22.48217 c 1.24883,-1.49881 4.42952,-6.9138 6.75696,-6.23826 1.79803,0.52137 3.3493,3.27062 4.48412,4.63239 3.27062,3.92475 6.57229,7.82541 9.81133,11.77638 5.73081,6.99195 11.53388,13.92342 17.31287,20.8763 2.45805,2.95747 6.4936,6.49788 7.75742,10.1705 1.9415,5.63982 0.31529,14.38109 0.31529,20.34101 0,7.48549 -0.1911,14.99935 0.008,22.48217 0.068,2.5635 0.98868,6.3116 4.27268,6.22167 4.89415,-0.13329 3.74863,-7.34203 3.74863,-10.50399 V 155.61086 M 96.709364,117.60529 c -2.447877,8.98645 -12.03706,6.95876 -19.270427,6.95876 H 20.698225 c 2.196187,-9.34615 11.793771,-6.95876 19.27043,-6.95876 h 56.740709 m 156.304596,6.95876 h -56.74071 c -7.23336,0 -16.82255,2.02769 -19.27042,-6.95876 h 56.7407 c 7.4764,0 17.07414,-2.38739 19.27043,6.95876 m -168.080968,7.49406 c -3.461185,8.93666 -11.905915,6.95877 -19.805717,6.95877 H 11.06301 c 4.329316,-9.15346 12.006762,-6.95877 20.876299,-6.95877 h 52.993683 m 49.246658,1.29968 c -12.90102,1.85157 -14.98812,12.13128 -14.98812,23.32365 0,3.46547 -0.77777,8.75573 1.91206,11.47179 1.97629,1.9961 5.13075,1.90617 7.72316,1.91045 6.40742,0.0102 13.47324,0.8297 19.80572,-0.16272 7.35916,-1.15302 5.88819,-9.79848 5.88819,-15.36068 0,-12.41819 -6.23827,-23.20641 -20.34101,-21.18249 m 12.31166,28.67654 h -19.27043 c 0,-5.06062 -1.4046,-12.60714 1.35589,-17.07948 3.41782,-5.53704 13.80887,-5.26565 16.84396,0.50692 2.36652,4.50125 1.07058,11.61899 1.07058,16.57256 M 73.156616,147.04622 c -3.706346,10.18818 9.208054,8.56464 15.523406,8.56464 v 70.65825 c -7.307242,-1.99396 -13.277327,-3.49919 -20.341014,0.42608 -2.977814,1.65512 -5.703511,6.62208 -9.1208,6.84369 -6.589309,0.42769 -9.166945,-3.18552 -14.967235,-5.41393 -4.438676,-1.70543 -8.888432,-1.51273 -13.382243,-0.24998 v -80.82875 h 42.287886 m -23.015369,19.08469 c -7.085362,2.24929 -4.284405,16.86162 -4.284405,22.66791 v 18.19985 c 0,2.61329 -0.604396,6.16172 0.631107,8.55661 2.859089,5.54078 17.734147,4.95357 22.921642,3.32468 7.73226,-2.42861 4.817608,-16.78507 4.817608,-23.12237 v -18.19985 c 0,-2.62988 0.596846,-6.15102 -0.705514,-8.54162 -2.742825,-5.0344 -18.48623,-4.43916 -23.380438,-2.88521 m 153.628203,0 c -7.08563,2.24929 -4.28446,16.86162 -4.28446,22.66791 v 18.19985 c 0,2.61329 -0.60434,6.16172 0.63111,8.55661 2.85898,5.54078 17.73415,4.95357 22.92164,3.32468 7.73226,-2.42861 4.81761,-16.78507 4.81761,-23.12237 v -18.19985 c 0,-2.62988 0.59685,-6.15102 -0.70551,-8.54162 -2.74229,-5.0344 -18.48624,-4.43916 -23.38039,-2.88521 M 66.733144,211.28099 H 53.350898 v -27.29977 c 0,-2.41577 -1.014427,-7.87197 0.550276,-9.84773 1.510054,-1.9067 11.916624,-1.68349 12.661748,0.82702 1.009018,3.39802 0.170222,8.16103 0.170222,11.69715 v 24.62333 m 153.628146,0 h -13.38224 v -27.29977 c 0,-2.41577 -1.01438,-7.87197 0.55028,-9.84773 1.51005,-1.9067 11.91662,-1.68349 12.66174,0.82702 1.00902,3.39802 0.17022,8.16103 0.17022,11.69715 v 24.62333 m -66.37592,-8.02935 v 62.09361 h -34.25855 v -62.09361 h 34.25855 m -28.36768,22.35477 c -5.10024,0.77296 -5.16769,16.2787 1.05987,15.50521 5.16929,-0.64235 5.07187,-16.43501 -1.05987,-15.50521 m -48.714044,6.18474 c 7.824332,-0.96352 11.776376,4.01253 11.776376,11.07193 0,2.17596 1.037392,7.58613 -1.685094,8.39442 -7.560432,2.24447 -18.778498,0.17022 -26.685261,0.17022 -2.622922,0 -7.0753,0.85325 -9.465049,-0.32278 -2.212459,-1.08931 -0.874288,-4.55692 0.08838,-6.05091 3.982019,-6.17939 9.263723,-0.6097 13.602782,-3.58645 4.753373,-3.26152 5.579858,-8.84084 12.367868,-9.67643 m -35.329122,19.63657 h -9.099925 c -1.96537,0 -4.980068,0.55456 -6.790686,-0.32278 -2.544928,-1.23331 -1.400478,-6.25486 -0.583573,-8.24186 2.324282,-5.65372 7.894775,-8.46132 13.797736,-7.97956 1.871319,0.15309 5.447429,0.90357 6.331353,2.83543 0.692718,1.51434 -0.969945,3.34235 -1.609991,4.60884 -1.43115,2.83169 -1.979983,5.95296 -2.044914,9.09993 m 47.105498,7.49406 v 6.42347 H 15.880617 v -6.42347 z"
       id="path1210" />
  </g>
</svg>
