<?xml version="1.0" encoding="UTF-8" standalone="no"?>
<!-- Created with Inkscape (http://www.inkscape.org/) -->

<svg
   version="1.1"
   id="svg18409"
   width="200"
   height="199.81946"
   viewBox="0 0 200.00001 199.81946"
   sodipodi:docname="knife.svg"
   inkscape:version="1.2.1 (9c6d41e410, 2022-07-14)"
   xmlns:inkscape="http://www.inkscape.org/namespaces/inkscape"
   xmlns:sodipodi="http://sodipodi.sourceforge.net/DTD/sodipodi-0.dtd"
   xmlns="http://www.w3.org/2000/svg"
   xmlns:svg="http://www.w3.org/2000/svg">
  <defs
     id="defs18413" />
  <sodipodi:namedview
     id="namedview18411"
     pagecolor="#505050"
     bordercolor="#eeeeee"
     borderopacity="1"
     inkscape:showpageshadow="0"
     inkscape:pageopacity="0"
     inkscape:pagecheckerboard="0"
     inkscape:deskcolor="#505050"
     showgrid="false"
     inkscape:zoom="1.8000898"
     inkscape:cx="71.663092"
     inkscape:cy="92.495386"
     inkscape:window-width="1920"
     inkscape:window-height="1043"
     inkscape:window-x="0"
     inkscape:window-y="0"
     inkscape:window-maximized="1"
     inkscape:current-layer="g18415" />
  <g
     inkscape:groupmode="layer"
     inkscape:label="Image"
     id="g18415"
     transform="translate(-2.5600002,-1.6490384)">
    <path
       style="fill:#425fee;stroke-width:0.42735;fill-opacity:1"
       d="m 2.5600002,201.37474 c 0,-1.11182 16.4359198,-23.61837 25.4382698,-34.83392 18.41685,-22.94459 34.268183,-40.75446 60.002932,-67.416664 8.514906,-8.821773 32.449828,-32.14517 35.217618,-34.317829 l 1.21437,-0.953256 5.73007,5.718277 c 3.15154,3.145052 5.73008,5.876454 5.73008,6.069783 0,0.193333 -0.57351,1.06515 -1.27444,1.93738 -3.41114,4.2447 -2.03152,11.54794 3.71092,19.644427 l 1.90836,2.690671 -1.08971,1.428691 c -3.25119,4.26253 -16.7315,18.84606 -25.70192,27.80535 -32.965695,32.9248 -64.839332,55.79885 -93.39327,67.02348 -7.063114,2.77654 -17.4932798,5.87913 -17.4932798,5.20361 z m 12.0122808,-5.29616 c 23.524896,-8.78766 50.795296,-26.96855 79.227036,-52.8198 15.489783,-14.08392 42.683433,-42.51255 41.891483,-43.793957 -0.15139,-0.244957 -0.41034,-0.445376 -0.57544,-0.445376 -0.16509,0 -4.91336,4.832953 -10.5517,10.739883 -8.70999,9.12492 -18.24328,18.50481 -29.909642,29.4284 -8.46863,7.92944 -24.612467,21.24704 -34.015659,28.06066 -8.971923,6.50112 -23.310883,15.82628 -23.71465,15.42251 -0.09195,-0.0919 1.321302,-1.20598 3.140543,-2.47564 9.381932,-6.54771 33.874308,-25.58135 43.051304,-33.45624 5.984577,-5.13545 28.983564,-27.44059 40.066744,-38.858 10.29262,-10.603001 10.68259,-11.065796 10.15512,-12.051394 -0.53511,-0.999872 -1.01517,-0.556607 -19.61597,18.112354 -10.48709,10.52552 -22.211412,22.0558 -26.054053,25.62284 -10.334547,9.59335 -30.816845,25.78104 -49.637311,39.2297 -6.66705,4.7641 -22.402471,15.23715 -26.175214,17.42147 -1.784302,1.03306 -2.3866539,1.52141 -1.8766081,1.52141 0.084319,0 2.1516261,-0.74647 4.5940171,-1.65882 z M 131.02567,69.151874 c -4.20343,-4.211495 -5.82284,-6.104774 -5.57435,-6.517094 1.01628,-1.686359 33.04745,-35.055239 45.51459,-47.4154 10.14057,-10.0535636 14.19336,-12.9087429 19.15794,-13.4967247 4.27857,-0.5067332 8.25749,1.6332445 10.17481,5.4723012 1.23034,2.4635376 2.26134,6.4937705 2.26134,8.8397695 0,2.436492 -1.07057,6.527406 -2.3891,9.129423 -1.0357,2.043848 -1.0611,2.060425 -3.15763,2.060425 -2.52454,0 -6.1872,1.28908 -9.41053,3.312069 -1.33797,0.839713 -6.30826,5.484376 -11.53846,10.782514 -9.17101,9.290123 -21.11054,20.695631 -23.44745,22.398718 -0.67912,0.494926 -3.03703,2.361439 -5.23981,4.147807 -3.92234,3.180871 -9.60206,7.222141 -10.1502,7.222141 -0.15211,0 -2.94263,-2.671175 -6.20115,-5.935949 z m 10.16055,-8.649401 c 0.58279,-0.265534 1.29331,-1.047009 1.57895,-1.73662 0.44951,-1.085206 0.40461,-1.408222 -0.33388,-2.401829 -1.05677,-1.421855 -3.25246,-1.760249 -4.44118,-0.68447 -1.22884,1.11208 -1.07253,3.331482 0.31128,4.419986 1.30504,1.026539 1.46663,1.049112 2.88483,0.402933 z m 19.92079,-19.602684 c 1.75853,-1.758534 0.30387,-5.128205 -2.21381,-5.128205 -1.05463,0 -2.91439,1.859762 -2.91439,2.914396 0,2.517679 3.36967,3.972343 5.1282,2.213809 z m 18.1134,-18.431504 c 1.36376,-0.621373 2.20626,-2.554614 1.60384,-3.680255 -0.67417,-1.259693 -1.66164,-1.926703 -2.85238,-1.926703 -2.68669,0 -3.79026,3.509717 -1.63629,5.204026 1.30503,1.02654 1.46662,1.049109 2.88483,0.402932 z"
       id="path18782" />
  </g>
</svg>
