<?xml version="1.0" encoding="UTF-8" standalone="no"?>
<!-- Created with Inkscape (http://www.inkscape.org/) -->

<svg
   version="1.1"
   id="svg1297"
   width="200"
   height="200"
   viewBox="0 0 200 200"
   xmlns="http://www.w3.org/2000/svg"
   xmlns:svg="http://www.w3.org/2000/svg">
  <defs
     id="defs1301" />
  <g
     id="g1303"
     transform="translate(-8,-8)">
    <path
       style="fill:#3b869e;fill-opacity:1;stroke-width:0.403226"
       d="M 108,208 H 9.9794722 L 8.9897359,207.01026 8,206.02053 v -6.08505 -6.08504 l 0.9897359,-0.98973 0.9897363,-0.98974 h 2.2360698 2.236071 V 121.89296 51.914956 l 0.989736,-0.989734 0.989736,-0.989738 H 34.796187 53.16129 V 29.957478 9.9794722 L 54.151028,8.9897359 55.140762,8 H 108 160.85924 l 0.98973,0.9897359 0.98974,0.9897363 V 46.086512 82.193548 h 18.3651 18.36511 l 0.98973,0.989738 0.98974,0.989734 v 53.84898 53.84897 h 2.23607 2.23607 l 0.98973,0.98974 0.98974,0.98973 v 6.08504 6.08505 l -0.98974,0.98973 L 206.02053,208 Z m 0,-6.45161 h 93.54839 v -1.61291 -1.6129 H 108 14.451613 v 1.6129 1.61291 z M 37.032258,191.87097 H 53.16129 V 124.12903 56.387097 H 37.032258 20.903226 v 67.741933 67.74194 z m 0,-41.93549 H 26.108504 l -0.989736,-0.98973 -0.989736,-0.98974 V 137.03226 126.1085 l 0.989736,-0.98973 0.989736,-0.98974 h 10.923754 10.923754 l 0.989734,0.98974 0.989738,0.98973 v 10.92376 10.92375 l -0.989738,0.98974 -0.989734,0.98973 z m 0,-6.45161 h 6.451613 v -6.45161 -6.45161 h -6.451613 -6.451613 v 6.45161 6.45161 z m 0,-25.80645 H 26.108504 l -0.989736,-0.98974 -0.989736,-0.98973 V 104.77419 93.85044 l 0.989736,-0.989734 0.989736,-0.989738 h 10.923754 10.923754 l 0.989734,0.989738 0.989738,0.989734 v 10.92375 10.92376 l -0.989738,0.98973 -0.989734,0.98974 z m 0,-6.45161 h 6.451613 v -6.45162 -6.451609 h -6.451613 -6.451613 v 6.451609 6.45162 z m 0,-25.806455 H 26.108504 L 25.118768,84.429617 24.129032,83.439883 V 72.516129 61.592375 l 0.989736,-0.989734 0.989736,-0.989738 h 10.923754 10.923754 l 0.989734,0.989738 0.989738,0.989734 v 10.923754 10.923754 l -0.989738,0.989734 -0.989734,0.989738 z m 0,-6.451613 h 6.451613 v -6.451613 -6.451613 h -6.451613 -6.451613 v 6.451613 6.451613 z M 70.903226,191.87097 h 11.290322 v -24.81672 -24.81671 l 0.989738,-0.98974 0.989734,-0.98974 H 108 131.82698 l 0.98973,0.98974 0.98974,0.98974 v 24.81671 24.81672 h 11.29032 11.29033 V 103.16129 14.451613 H 108 59.612903 v 88.709677 88.70968 z M 108,130.58065 H 68.043988 l -0.989734,-0.98974 -0.989738,-0.98974 v -14.14956 -14.14956 l 0.989738,-0.989731 0.989734,-0.989738 H 108 147.95601 l 0.98974,0.989738 0.98973,0.989731 v 14.14956 14.14956 l -0.98973,0.98974 -0.98974,0.98974 z m -29.032258,-6.45162 h 6.451613 v -9.67742 -9.67742 h -6.451613 -6.451613 v 9.67742 9.67742 z m 19.354839,0 h 6.451609 v -9.67742 -9.67742 h -6.451609 -6.451613 v 9.67742 9.67742 z m 19.354839,0 h 6.45161 v -9.67742 -9.67742 h -6.45161 -6.45161 v 9.67742 9.67742 z m 19.35484,0 h 6.45161 v -9.67742 -9.67742 h -6.45161 -6.45161 v 9.67742 9.67742 z M 108,91.870968 H 68.043988 L 67.054254,90.88123 66.064516,89.891496 V 75.741935 61.592375 l 0.989738,-0.989734 0.989734,-0.989738 H 108 147.95601 l 0.98974,0.989738 0.98973,0.989734 v 14.14956 14.149561 l -0.98973,0.989734 -0.98974,0.989738 z M 78.967742,85.419355 h 6.451613 v -9.67742 -9.677419 h -6.451613 -6.451613 v 9.677419 9.67742 z m 19.354839,0 h 6.451609 v -9.67742 -9.677419 h -6.451609 -6.451613 v 9.677419 9.67742 z m 19.354839,0 h 6.45161 v -9.67742 -9.677419 h -6.45161 -6.45161 v 9.677419 9.67742 z m 19.35484,0 h 6.45161 v -9.67742 -9.677419 h -6.45161 -6.45161 v 9.677419 9.67742 z M 108,53.16129 H 68.043988 L 67.054254,52.171552 66.064516,51.181819 V 37.032258 22.882698 l 0.989738,-0.989736 0.989734,-0.989736 H 108 147.95601 l 0.98974,0.989736 0.98973,0.989736 v 14.14956 14.149561 l -0.98973,0.989733 -0.98974,0.989738 z M 78.967742,46.709677 h 6.451613 v -9.677419 -9.677419 h -6.451613 -6.451613 v 9.677419 9.677419 z m 19.354839,0 h 6.451609 v -9.677419 -9.677419 h -6.451609 -6.451613 v 9.677419 9.677419 z m 19.354839,0 h 6.45161 v -9.677419 -9.677419 h -6.45161 -6.45161 v 9.677419 9.677419 z m 19.35484,0 h 6.45161 v -9.677419 -9.677419 h -6.45161 -6.45161 v 9.677419 9.677419 z M 96.709677,191.87097 h 8.064513 v -22.58065 -22.58064 h -8.064513 -8.064516 v 22.58064 22.58065 z m 22.580643,0 h 8.06452 v -22.58065 -22.58064 h -8.06452 -8.06451 v 22.58064 22.58065 z m 59.67742,0 h 16.12903 V 140.25806 88.645161 h -16.12903 -16.12903 v 51.612899 51.61291 z m 0,-41.93549 h -10.92375 l -0.98974,-0.98973 -0.98973,-0.98974 V 137.03226 126.1085 l 0.98973,-0.98973 0.98974,-0.98974 h 10.92375 10.92376 l 0.98973,0.98974 0.98974,0.98973 v 10.92376 10.92375 l -0.98974,0.98974 -0.98973,0.98973 z m 0,-6.45161 h 6.45161 v -6.45161 -6.45161 h -6.45161 -6.45161 v 6.45161 6.45161 z m 0,-25.80645 h -10.92375 l -0.98974,-0.98974 -0.98973,-0.98973 V 104.77419 93.85044 l 0.98973,-0.989734 0.98974,-0.989738 h 10.92375 10.92376 l 0.98973,0.989738 0.98974,0.989734 v 10.92375 10.92376 l -0.98974,0.98973 -0.98973,0.98974 z m 0,-6.45161 h 6.45161 v -6.45162 -6.451609 h -6.45161 -6.45161 v 6.451609 6.45162 z"
       id="path2154" />
  </g>
</svg>
