<?xml version="1.0" encoding="UTF-8" standalone="no"?>
<!-- Created with Inkscape (http://www.inkscape.org/) -->

<svg
   version="1.1"
   id="svg8529"
   width="200"
   height="200.03304"
   viewBox="0 0 200 200.03303"
   sodipodi:docname="surgical-instrument.svg"
   inkscape:version="1.2.1 (9c6d41e410, 2022-07-14)"
   xmlns:inkscape="http://www.inkscape.org/namespaces/inkscape"
   xmlns:sodipodi="http://sodipodi.sourceforge.net/DTD/sodipodi-0.dtd"
   xmlns="http://www.w3.org/2000/svg"
   xmlns:svg="http://www.w3.org/2000/svg">
  <defs
     id="defs8533" />
  <sodipodi:namedview
     id="namedview8531"
     pagecolor="#505050"
     bordercolor="#eeeeee"
     borderopacity="1"
     inkscape:showpageshadow="0"
     inkscape:pageopacity="0"
     inkscape:pagecheckerboard="0"
     inkscape:deskcolor="#505050"
     showgrid="false"
     inkscape:zoom="0.96219512"
     inkscape:cx="322.17997"
     inkscape:cy="201.10266"
     inkscape:window-width="1920"
     inkscape:window-height="1043"
     inkscape:window-x="0"
     inkscape:window-y="0"
     inkscape:window-maximized="1"
     inkscape:current-layer="g8535" />
  <g
     inkscape:groupmode="layer"
     inkscape:label="Image"
     id="g8535"
     transform="translate(0,-209.96697)">
    <path
       style="fill:#425fee;fill-opacity:1;stroke-width:0.244009"
       d="m 86.816965,409.70894 c 8.63318,-1.39439 15.630685,-6.56238 19.641595,-14.50625 1.15619,-2.2899 2.1422,-5.30214 2.58213,-7.88831 0.46664,-2.74317 0.169,-8.09025 -0.61258,-11.00501 -2.01715,-7.52255 -6.75516,-13.39991 -13.794228,-17.11129 -1.421373,-0.74944 -2.126037,-1.25119 -1.997064,-1.42203 1.758582,-2.32945 12.205862,-16.1804 20.168282,-26.73897 5.61696,-7.44838 11.70958,-15.51899 13.53916,-17.93468 5.52638,-7.29678 12.2624,-16.2237 30.38029,-40.26152 9.50845,-12.61528 18.45683,-24.47413 19.8853,-26.35299 1.42847,-1.87887 7.27562,-9.63022 12.99369,-17.22521 L 200,215.45361 l -2.75113,-2.74332 -2.75112,-2.74332 -8.39368,6.31357 c -4.61652,3.47247 -10.42504,7.85584 -12.90783,9.74082 -4.96441,3.76907 -26.77279,20.2519 -37.33342,28.21669 -3.69064,2.78347 -12.09066,9.12547 -18.6667,14.09331 -6.57606,4.96786 -15.7996,11.9274 -20.496784,15.46566 -4.697172,3.53825 -16.226611,12.22317 -25.620966,19.2998 -9.394355,7.07664 -17.54104,13.18463 -18.103745,13.57331 l -1.023095,0.70669 -1.15383,-2.11672 c -1.471374,-2.69928 -3.586148,-5.50575 -5.446918,-7.22849 -3.66576,-3.39385 -9.02572,-6.11176 -13.853616,-7.02484 -2.51006,-0.47472 -8.493484,-0.17065 -11.32724,0.57562 -8.32129,2.19144 -14.0809145,7.02232 -17.7909047,14.92212 -1.48774,3.16788 -2.168215,5.89443 -2.348075,9.40838 -0.16156,3.1563 0.321725,7.3126 1.163285,10.00437 2.559945,8.18812 9.3335747,14.75232 18.2761907,17.71112 1.995334,0.66019 2.263994,0.68673 7.07627,0.69892 4.491644,0.0114 5.213874,-0.0449 7.076264,-0.55184 2.640046,-0.71854 6.971356,-2.83262 9.06129,-4.42275 4.352886,-3.31191 8.337469,-8.74768 9.848614,-13.43545 0.23794,-0.73813 0.4663,-1.38138 0.507475,-1.42946 0.04115,-0.0481 1.740845,1.57153 3.777055,3.59913 2.036215,2.0276 3.773515,3.68656 3.86067,3.68656 0.08715,0 1.692985,-1.53747 3.568515,-3.41659 l 3.41005,-3.4166 -4.730235,-4.7349 -4.730235,-4.73491 9.12521,-6.79983 c 5.018865,-3.73991 12.419335,-9.24113 16.445485,-12.22494 4.026155,-2.98381 11.718332,-8.69103 17.09373,-12.68271 5.3754,-3.99169 12.8794,-9.5635 16.67555,-12.38181 3.79614,-2.8183 10.65302,-7.91688 15.23749,-11.33017 16.60103,-12.36 28.78091,-21.25566 28.9169,-21.11967 0.14791,0.14791 -6.49236,9.02593 -54.38412,72.71136 -8.275673,11.00482 -16.675685,22.17739 -18.666685,24.82794 -2.441815,3.2507 -3.76834,4.81918 -4.07576,4.81918 -0.26329,0 -2.388045,-1.90218 -5.03148,-4.50442 l -4.575725,-4.50443 -3.518385,3.52468 -3.51839,3.52467 3.65328,3.66589 c 2.0093,2.01625 3.68244,3.75248 3.718085,3.85829 0.03564,0.10582 -0.513375,0.3976 -1.220045,0.6484 -4.289825,1.52246 -7.53903,3.56754 -10.679215,6.72161 -3.1777,3.19175 -5.492585,6.99468 -6.97963,11.46623 -0.67324,2.02444 -0.689745,2.20257 -0.689745,7.44229 0,5.22975 0.0177,5.42169 0.685855,7.44228 3.240795,9.80041 10.18109,16.47609 19.549995,18.80458 2.69518,0.66984 7.792065,0.82429 10.85841,0.32903 z m -9.23311,-10.19302 c -5.58794,-1.65943 -10.10118,-6.3545 -11.643615,-12.11271 -0.62929,-2.34926 -0.562325,-6.66535 0.138185,-8.90633 0.80975,-2.59045 2.09147,-4.83222 3.84674,-6.72807 2.35274,-2.54118 4.931395,-4.14432 7.985465,-4.96455 1.974065,-0.53016 5.985675,-0.7766 7.142885,-0.43877 3.861075,1.12713 4.623155,1.44512 6.626994,2.76523 2.596736,1.71071 4.310364,3.56329 5.600618,6.05474 3.499353,6.7572 2.547264,14.0075 -2.564445,19.52876 -4.253362,4.59414 -11.239042,6.55197 -17.132827,4.8017 z M 20.174522,343.1981 c -2.913436,-1.41693 -5.02437,-2.98371 -6.429776,-4.77232 -2.54487,-3.23879 -3.8652342,-6.92035 -3.8750796,-10.80483 -0.011555,-4.56438 1.5903256,-8.34848 4.9597496,-11.71625 2.347526,-2.34638 4.351646,-3.61494 7.2031,-4.55939 1.64894,-0.54616 2.387836,-0.64758 4.75818,-0.65311 2.53949,-0.005 3.0251,0.0687 5.11097,0.78616 3.985356,1.37069 6.759736,3.43238 8.888416,6.60513 2.221194,3.31063 2.95122,5.69331 2.922164,9.53746 -0.031,4.09997 -1.03695,7.06821 -3.496644,10.31739 -1.56383,2.06577 -3.69722,3.77991 -6.31248,5.07197 -2.58009,1.27468 -3.49055,1.43198 -7.87238,1.36009 l -3.56606,-0.0585 z"
       id="path9382" />
  </g>
</svg>
